<svg xmlns="http://www.w3.org/2000/svg" width="522.363" height="117.191" viewBox="0 0 522.363 117.191">
  <g id="Group_3" data-name="Group 3" transform="translate(-28 -36)">
    <g id="Layer_2" data-name="Layer 2" transform="translate(176.215 78.256)">
      <g id="Layer_1" data-name="Layer 1" transform="translate(0 0)">
        <path id="Path_361" data-name="Path 361" d="M16.207,33.551H10.618V54.48H0V.02H21.264A16.346,16.346,0,0,1,38.616,16.786,15.452,15.452,0,0,1,27.02,32.21L38.672,54.564H26.853Zm3.046-9.193c5.393,0,8.522-3.074,8.522-7.516s-3.13-7.6-8.522-7.6H10.674V24.358Z" transform="translate(0 0.011)" fill="#fff"/>
        <path id="Path_362" data-name="Path 362" d="M57.155,39.531a11.931,11.931,0,0,1-10.423,5.058A13.971,13.971,0,0,1,32.37,29.7V6h10.2V27.8c0,4.219,2.152,7.6,6.9,7.6a6.818,6.818,0,0,0,7.069-7.544V6h10.2V36.737a57.923,57.923,0,0,0,.391,6.818H57.462a27.217,27.217,0,0,1-.307-4.024Z" transform="translate(58.024 10.797)" fill="#fff"/>
        <path id="Path_363" data-name="Path 363" d="M63.989,13.32h7.6v8.942h-7.6V38.077c0,3.3,1.537,4.359,4.471,4.359a15.955,15.955,0,0,0,3.13-.279V50.54a15.592,15.592,0,0,1-5.756.922,10.925,10.925,0,0,1-11.959-11.68V22.262H47V13.32h1.928a5.588,5.588,0,0,0,5.84-5.98V1.92h9.193Z" transform="translate(84.329 3.476)" fill="#fff"/>
        <path id="Path_364" data-name="Path 364" d="M94.493,33.632A17.017,17.017,0,0,1,77.309,45.619a19.141,19.141,0,0,1-19.56-20.2A18.973,18.973,0,0,1,76.387,5.55c11.652,0,18.638,7.433,18.638,19.56v3.157H67.864a9.165,9.165,0,0,0,9.5,8.578,8.383,8.383,0,0,0,8.606-5.756ZM84.965,21.282a7.572,7.572,0,0,0-8.383-7.461A8.187,8.187,0,0,0,68.2,21.282Z" transform="translate(103.562 9.989)" fill="#fff"/>
        <path id="Path_365" data-name="Path 365" d="M107.061,10.059V54.4H96.415V10.059H79.23V0h45.043V10.059Z" transform="translate(142.157 0.031)" fill="#fff"/>
        <path id="Path_366" data-name="Path 366" d="M118.784,16.269a13.971,13.971,0,0,0-3.074-.307c-5.225,0-9.752,2.515-9.752,10.646V43.876H95.76V6.237h9.892v5.588A11.177,11.177,0,0,1,116.409,5.9a21.6,21.6,0,0,1,2.375.168Z" transform="translate(171.816 10.559)" fill="#fff"/>
        <path id="Path_367" data-name="Path 367" d="M142.163,33.632a17.017,17.017,0,0,1-17.185,11.987,19.141,19.141,0,0,1-19.56-20.2A18.973,18.973,0,0,1,124,5.55c11.652,0,18.638,7.433,18.638,19.56v3.157h-27.16a9.193,9.193,0,0,0,9.528,8.578,8.383,8.383,0,0,0,8.578-5.756Zm-9.5-12.351a7.628,7.628,0,0,0-8.383-7.461,8.187,8.187,0,0,0-8.383,7.461Z" transform="translate(189.093 9.989)" fill="#fff"/>
        <path id="Path_368" data-name="Path 368" d="M157.371,33.632a17.017,17.017,0,0,1-17.212,11.987,19.14,19.14,0,0,1-19.56-20.2A18.945,18.945,0,0,1,139.181,5.55c11.652,0,18.638,7.433,18.638,19.56,0,1.453-.168,2.99-.168,3.157H130.658a9.165,9.165,0,0,0,9.5,8.578,8.383,8.383,0,0,0,8.606-5.756Zm-9.528-12.351a7.572,7.572,0,0,0-8.383-7.461,8.159,8.159,0,0,0-8.383,7.461Z" transform="translate(216.33 9.989)" fill="#fff"/>
        <path id="Path_369" data-name="Path 369" d="M35.363,15.53A10.171,10.171,0,0,1,41.2,34.056a10.059,10.059,0,0,1-5.84,1.844,10.2,10.2,0,0,1,0-20.37m0-9.78A19.951,19.951,0,1,0,55.342,25.729,19.951,19.951,0,0,0,35.363,5.75Z" transform="translate(27.703 10.348)" fill="#fff"/>
      </g>
    </g>
    <g id="Layer_2-2" data-name="Layer 2" transform="translate(28 36)">
      <g id="Layer_1-2" data-name="Layer 1" transform="translate(0 0)">
        <path id="Path_376" data-name="Path 376" d="M21.391,106.38a1.575,1.575,0,0,1-1.6-1.575V4.081a1.6,1.6,0,0,1,1.6-1.6,1.575,1.575,0,0,1,1.575,1.6V104.805a1.548,1.548,0,0,1-1.575,1.575Z" transform="translate(33.054 4.166)" fill="#fff"/>
        <path id="Path_377" data-name="Path 377" d="M30.339,20.2a1.6,1.6,0,0,1-1.041-.347L14.886,5.2a1.6,1.6,0,0,1,0-2.242,1.575,1.575,0,0,1,2.242,0L31.54,17.615a1.6,1.6,0,0,1,0,2.242A1.681,1.681,0,0,1,30.339,20.2Z" transform="translate(24.106 4.19)" fill="#fff"/>
        <path id="Path_378" data-name="Path 378" d="M21.445,20.925a1.628,1.628,0,0,1-1.121-.454,1.6,1.6,0,0,1,0-2.269l8.754-8.674A1.628,1.628,0,0,1,30.2,9.075H40.875l3.149-2.989a1.6,1.6,0,0,1,2.242,0,1.548,1.548,0,0,1,0,2.242l-3.817,3.63a1.575,1.575,0,0,1-1.068.427H30.92l-8.3,8.22a1.681,1.681,0,0,1-1.174.32Z" transform="translate(33.16 9.42)" fill="#fff"/>
        <path id="Path_379" data-name="Path 379" d="M21.453,27.913a1.628,1.628,0,0,1-1.148-.507,1.575,1.575,0,0,1-.053-2.162l7.019-6.7a1.548,1.548,0,0,1,1.094-.454h24.02L59.3,10.939a1.585,1.585,0,1,1,2.269,2.215L54.2,20.787a1.548,1.548,0,0,1-1.148.48H29.033l-6.565,6.272a1.548,1.548,0,0,1-1.014.374Z" transform="translate(33.152 17.485)" fill="#fff"/>
        <path id="Path_380" data-name="Path 380" d="M33.105,21.22a1.628,1.628,0,0,1-1.148-.48l-4.484-4.724a1.586,1.586,0,0,1,2.3-2.188l4.51,4.724a1.551,1.551,0,0,1-1.174,2.669Z" transform="translate(45.147 22.283)" fill="#fff"/>
        <path id="Path_381" data-name="Path 381" d="M39.087,81.341a1.575,1.575,0,0,1-1.094-.427L33,76.137H24.435a1.575,1.575,0,0,1-1.575-1.575V25.374a1.628,1.628,0,0,1,.454-1.121l5.711-5.711a1.575,1.575,0,0,1,1.121-.454H48.962a1.6,1.6,0,1,1,0,3.176H30.813l-4.777,4.777V72.961h7.606a1.548,1.548,0,0,1,1.094.454l5.338,5.2a1.575,1.575,0,0,1,0,2.242,1.548,1.548,0,0,1-.987.48Z" transform="translate(38.178 30.192)" fill="#fff"/>
        <path id="Path_382" data-name="Path 382" d="M60.438,25.986h-36a1.548,1.548,0,0,1-1.575-1.575,1.575,1.575,0,0,1,1.575-1.6h36a1.6,1.6,0,0,1,1.6,1.6,1.575,1.575,0,0,1-1.6,1.575Z" transform="translate(38.178 38.094)" fill="#fff"/>
        <path id="Path_383" data-name="Path 383" d="M36.588,34a1.6,1.6,0,0,1-1.174-.534L28.288,25.46a1.587,1.587,0,1,1,2.349-2.135l7.153,8.007A1.6,1.6,0,0,1,36.588,34Z" transform="translate(46.548 38.087)" fill="#fff"/>
        <path id="Path_384" data-name="Path 384" d="M27.472,87a1.6,1.6,0,0,1-1.148-2.722l5.338-4.964a1.521,1.521,0,0,1,1.094-.454h7.1V31.536l-7.74-7.526H10.1a1.575,1.575,0,0,1-1.121-.48L3.025,17.525a1.6,1.6,0,1,1,2.242-2.269l5.5,5.6H32.7a1.548,1.548,0,0,1,1.094.454l8.7,8.434a1.708,1.708,0,0,1,.48,1.148V80.457a1.575,1.575,0,0,1-1.6,1.575H33.29l-4.777,4.537A1.521,1.521,0,0,1,27.472,87Z" transform="translate(4.101 24.537)" fill="#fff"/>
        <path id="Path_385" data-name="Path 385" d="M41.232,25.986H4.081a1.575,1.575,0,0,1-1.6-1.575,1.6,1.6,0,0,1,1.6-1.6H41.232a1.6,1.6,0,0,1,1.6,1.6,1.575,1.575,0,0,1-1.6,1.575Z" transform="translate(4.166 38.094)" fill="#fff"/>
        <path id="Path_386" data-name="Path 386" d="M15.171,23.24a1.521,1.521,0,0,1-1.121-.454L9.086,17.822a1.6,1.6,0,0,1,0-2.242,1.548,1.548,0,0,1,2.242,0l4.964,4.964a1.6,1.6,0,0,1,0,2.242A1.548,1.548,0,0,1,15.171,23.24Z" transform="translate(14.427 25.227)" fill="#fff"/>
        <path id="Path_387" data-name="Path 387" d="M42.262,26.613a1.6,1.6,0,0,1-1.148-.48L30.759,15.457H13.945a1.441,1.441,0,0,1-1.041-.4l-4.911-4.4a1.6,1.6,0,1,1,2.082-2.4l4.457,3.9H31.453a1.708,1.708,0,0,1,1.148.48L43.409,23.944a1.575,1.575,0,0,1-1.148,2.669Z" transform="translate(12.184 12.914)" fill="#fff"/>
        <path id="Path_388" data-name="Path 388" d="M17.371,15.446a1.5,1.5,0,0,1-1.148-.507l-4.35-4.591a1.575,1.575,0,0,1,0-2.242,1.6,1.6,0,0,1,2.242,0l4.35,4.591a1.575,1.575,0,0,1,0,2.242A1.628,1.628,0,0,1,17.371,15.446Z" transform="translate(19.06 12.791)" fill="#fff"/>
        <path id="Path_389" data-name="Path 389" d="M33.567,16.668a1.681,1.681,0,0,1-1.121-.454L25.88,9.622A1.585,1.585,0,1,1,28.122,7.38l6.565,6.592a1.6,1.6,0,0,1,0,2.242,1.681,1.681,0,0,1-1.121.454Z" transform="translate(42.444 11.569)" fill="#fff"/>
        <path id="Path_390" data-name="Path 390" d="M28.766,29.461a1.681,1.681,0,0,1-1.121-.454l-11.8-11.556a1.585,1.585,0,1,1,2.215-2.269l11.8,11.556a1.575,1.575,0,0,1,0,2.242A1.548,1.548,0,0,1,28.766,29.461Z" transform="translate(25.679 24.611)" fill="#fff"/>
        <path id="Path_391" data-name="Path 391" d="M16.175,30.711a1.548,1.548,0,0,1-1.121-.454L7.288,22.7a1.628,1.628,0,0,1,0-2.269,1.6,1.6,0,0,1,2.242,0l7.793,7.606a1.6,1.6,0,0,1,0,2.242,1.575,1.575,0,0,1-1.148.427Z" transform="translate(11.421 33.369)" fill="#fff"/>
        <path id="Path_392" data-name="Path 392" d="M10.567,33.615a1.681,1.681,0,0,1-1.121-.454,1.6,1.6,0,0,1,0-2.242l7.58-7.633a1.6,1.6,0,0,1,2.242,0,1.628,1.628,0,0,1,0,2.269l-7.58,7.58a1.548,1.548,0,0,1-1.121.48Z" transform="translate(15.028 38.125)" fill="#fff"/>
        <path id="Path_393" data-name="Path 393" d="M11.568,35.242a4.911,4.911,0,1,1,4.884-4.884A4.911,4.911,0,0,1,11.568,35.242Zm0-6.619a1.735,1.735,0,1,0,1.708,1.735,1.735,1.735,0,0,0-1.708-1.735Z" transform="translate(11.092 42.45)" fill="#fff"/>
        <path id="Path_394" data-name="Path 394" d="M23.521,50.042a4.911,4.911,0,1,1,4.911-4.911,4.911,4.911,0,0,1-4.911,4.911Zm0-6.646a1.735,1.735,0,1,0,1.735,1.735A1.735,1.735,0,0,0,23.521,43.4Z" transform="translate(31.085 67.15)" fill="#fff"/>
        <path id="Path_395" data-name="Path 395" d="M13.948,50.042a4.911,4.911,0,1,1,4.884-4.911,4.911,4.911,0,0,1-4.884,4.911Zm0-6.646a1.735,1.735,0,1,0,1.735,1.735A1.735,1.735,0,0,0,13.948,43.4Z" transform="translate(15.064 67.15)" fill="#fff"/>
        <path id="Path_396" data-name="Path 396" d="M33.071,50.042a4.911,4.911,0,1,1,4.911-4.911,4.911,4.911,0,0,1-4.911,4.911Zm0-6.646a1.735,1.735,0,1,0,1.735,1.735A1.735,1.735,0,0,0,33.071,43.4Z" transform="translate(47.023 67.15)" fill="#fff"/>
        <path id="Path_397" data-name="Path 397" d="M17.951,22.192a4.911,4.911,0,1,1,4.911-4.911,4.911,4.911,0,0,1-4.911,4.911Zm0-6.646a1.735,1.735,0,1,0,1.735,1.735A1.735,1.735,0,0,0,17.951,15.546Z" transform="translate(21.789 20.671)" fill="#fff"/>
        <path id="Path_398" data-name="Path 398" d="M4.928,31.462a4.911,4.911,0,1,1,4.884-4.911,4.911,4.911,0,0,1-4.884,4.911Zm0-6.646a1.735,1.735,0,1,0,1.708,1.735,1.735,1.735,0,0,0-1.708-1.735Z" transform="translate(0.01 36.142)" fill="#fff"/>
        <path id="Path_399" data-name="Path 399" d="M5.178,22.192a4.911,4.911,0,1,1,4.884-4.911,4.911,4.911,0,0,1-4.884,4.911Zm0-6.646a1.735,1.735,0,1,0,1.708,1.735,1.735,1.735,0,0,0-1.708-1.735Z" transform="translate(0.427 20.671)" fill="#fff"/>
        <path id="Path_400" data-name="Path 400" d="M10.138,15.492a4.911,4.911,0,1,1,4.884-4.911,4.911,4.911,0,0,1-4.884,4.911Zm0-6.646a1.735,1.735,0,1,0,1.708,1.735,1.735,1.735,0,0,0-1.708-1.735Z" transform="translate(8.705 9.489)" fill="#fff"/>
        <path id="Path_401" data-name="Path 401" d="M23.478,9.812a4.911,4.911,0,1,1,4.884-4.884,4.911,4.911,0,0,1-4.884,4.884Zm0-6.619a1.735,1.735,0,1,0,1.735,1.735A1.735,1.735,0,0,0,23.478,3.193Z" transform="translate(30.968 0.01)" fill="#fff"/>
        <path id="Path_402" data-name="Path 402" d="M33.338,13.311a4.911,4.911,0,1,1,4.8-4.884A4.911,4.911,0,0,1,33.338,13.311Zm0-6.619a1.735,1.735,0,1,0,1.708,1.735,1.735,1.735,0,0,0-1.708-1.735Z" transform="translate(47.29 5.852)" fill="#fff"/>
        <path id="Path_403" data-name="Path 403" d="M39,17.951a4.884,4.884,0,1,1,3.521-1.364A4.911,4.911,0,0,1,39,17.951Zm0-6.619a1.735,1.735,0,1,0,1.735,1.735A1.735,1.735,0,0,0,39,11.332Z" transform="translate(57.103 13.596)" fill="#fff"/>
        <path id="Path_404" data-name="Path 404" d="M37.2,26.781a4.911,4.911,0,1,1,3.49-1.429,4.911,4.911,0,0,1-3.49,1.429Zm0-6.646a1.735,1.735,0,1,0,1.735,1.735A1.761,1.761,0,0,0,37.2,20.136Z" transform="translate(53.966 28.331)" fill="#fff"/>
        <path id="Path_405" data-name="Path 405" d="M41.618,31.4A4.911,4.911,0,1,1,46.5,26.491,4.911,4.911,0,0,1,41.618,31.4Zm0-6.646a1.735,1.735,0,1,0,1.708,1.735,1.735,1.735,0,0,0-1.708-1.735Z" transform="translate(61.242 36.042)" fill="#fff"/>
        <path id="Path_406" data-name="Path 406" d="M35.451,35.242a4.884,4.884,0,1,1,3.471-1.421,4.911,4.911,0,0,1-3.471,1.421Zm0-6.619a1.735,1.735,0,1,0,1.735,1.735,1.735,1.735,0,0,0-1.735-1.735Z" transform="translate(50.995 42.45)" fill="#fff"/>
        <path id="Path_407" data-name="Path 407" d="M55.646,16.506H30.5a1.575,1.575,0,0,1-1.575-1.575,1.6,1.6,0,0,1,1.575-1.6H55.646a1.6,1.6,0,0,1,1.6,1.6,1.575,1.575,0,0,1-1.6,1.575Z" transform="translate(48.308 22.273)" fill="#fff"/>
      </g>
    </g>
  </g>
</svg>
